<?xml version="1.0" encoding="iso-8859-1"?>
<!-- Uploaded to: SVG Repo, www.svgrepo.com, Generator: SVG Repo Mixer Tools -->
<svg height="800px" width="800px" version="1.1" id="Layer_1" xmlns="http://www.w3.org/2000/svg" xmlns:xlink="http://www.w3.org/1999/xlink" 
	 viewBox="0 0 511.99 511.99" xml:space="preserve">
<polygon style="fill:#EC5564;" points="319.991,365.996 319.991,280.654 266.665,280.654 266.665,195.32 138.652,195.32 
	10.656,195.32 10.656,280.654 10.656,365.996 10.656,451.337 138.652,451.337 266.665,451.337 394.66,451.337 394.66,365.996 "/>
<path style="fill:#D94452;" d="M330.663,355.34v-85.35h-53.326v-85.325H149.34h-21.343H0v85.325v21.352v63.998v21.312v85.341
	h127.997h21.343h106.653h21.344h127.995V355.34H330.663z M309.335,291.342v63.998h-31.998h-21.344h-53.327v-63.998h74.671H309.335z
	 M74.654,291.342h53.342h21.343h31.999v63.998h-31.999h-21.343H74.654V291.342z M149.34,205.992h106.653v63.998h-53.327h-21.327
	H149.34V205.992z M21.328,205.992h106.669v63.998H74.654H53.327H21.328V205.992z M21.328,291.342h31.999v63.998H21.328V291.342z
	 M127.996,440.649H21.328v-63.997h31.999h21.328h53.342L127.996,440.649L127.996,440.649z M255.993,440.649H149.34v-63.997h31.999
	h21.327h53.327L255.993,440.649L255.993,440.649z M383.989,440.649H277.337v-63.997h53.326h53.326V440.649z"/>
<path style="fill:#E5E8EC;" d="M353.429,194.008c-18.594,0-37.125-7.874-50.875-21.608c-16.374-16.39-24.748-48.639-27.592-61.748
	c-2.406-11.109-3.906-22.141-4.219-31.062c-0.438-12.219,1.281-19.594,5.609-23.905c3.921-3.938,10.233-5.688,20.468-5.688
	c13.374,0,32.296,3.094,49.374,8.046c14.812,4.312,34.967,11.938,46.872,23.844c13,12.999,20.641,29.89,21.531,47.53
	c0.906,18.046-5.328,34.718-17.578,46.951C385.645,187.743,370.162,194.008,353.429,194.008z"/>
<path style="fill:#CCD1D9;" d="M412.113,206.523l-45.248-45.248c-4.172-4.172-4.172-10.922,0-15.078
	c4.156-4.172,10.905-4.172,15.077,0l45.265,45.248C431.363,195.617,414.207,208.617,412.113,206.523z"/>
<path style="fill:#FECD57;" d="M502.627,236.694l-67.889-67.872l-45.249,45.248l67.873,67.896
	c6.062,6.031,14.093,9.375,22.624,9.375c8.562,0,16.594-3.344,22.641-9.375C515.111,269.474,515.111,249.179,502.627,236.694z"/>
</svg>